<mxfile host="app.diagrams.net" agent="Mozilla/5.0 (Macintosh; Intel Mac OS X 10_15_7) AppleWebKit/605.1.15 (KHTML, like Gecko) Version/18.0.1 Safari/605.1.15" version="24.7.17">
  <diagram name="Page-1" id="39eGpuav0o3ln-8u41Aq">
    <mxGraphModel dx="1194" dy="772" grid="1" gridSize="10" guides="1" tooltips="1" connect="1" arrows="1" fold="1" page="1" pageScale="1" pageWidth="827" pageHeight="1169" math="0" shadow="0">
      <root>
        <mxCell id="0" />
        <mxCell id="1" parent="0" />
        <mxCell id="9VtgRzQtIl7p8hPJ1WHW-1" value="" style="rounded=1;whiteSpace=wrap;html=1;strokeColor=#3399FF;align=center;verticalAlign=middle;fontFamily=Helvetica;fontSize=12;fontColor=default;labelBackgroundColor=default;fillColor=none;strokeWidth=2;dashed=1;" vertex="1" parent="1">
          <mxGeometry x="108" y="84" width="396" height="216" as="geometry" />
        </mxCell>
        <mxCell id="9VtgRzQtIl7p8hPJ1WHW-2" style="rounded=0;orthogonalLoop=1;jettySize=auto;html=1;entryX=0;entryY=0.25;entryDx=0;entryDy=0;strokeWidth=2;strokeColor=#3399FF;labelBackgroundColor=none;fontColor=default;" edge="1" parent="1" source="9VtgRzQtIl7p8hPJ1WHW-4" target="9VtgRzQtIl7p8hPJ1WHW-7">
          <mxGeometry relative="1" as="geometry" />
        </mxCell>
        <mxCell id="9VtgRzQtIl7p8hPJ1WHW-3" value="1, 3, 5 ..." style="edgeLabel;html=1;align=center;verticalAlign=bottom;resizable=0;points=[];labelBackgroundColor=none;fontColor=default;" connectable="0" vertex="1" parent="9VtgRzQtIl7p8hPJ1WHW-2">
          <mxGeometry x="-0.1761" y="1" relative="1" as="geometry">
            <mxPoint as="offset" />
          </mxGeometry>
        </mxCell>
        <mxCell id="9VtgRzQtIl7p8hPJ1WHW-4" value="My SQL" style="rounded=1;whiteSpace=wrap;html=1;strokeColor=#FFFFFF;align=center;verticalAlign=top;fontFamily=Helvetica;fontSize=12;fontColor=default;labelBackgroundColor=none;fillColor=#3399FF;" vertex="1" parent="1">
          <mxGeometry x="132" y="120" width="60" height="60" as="geometry" />
        </mxCell>
        <mxCell id="9VtgRzQtIl7p8hPJ1WHW-5" value="2, 4, 6 ..." style="rounded=0;orthogonalLoop=1;jettySize=auto;html=1;entryX=0;entryY=0.75;entryDx=0;entryDy=0;strokeColor=#3399FF;strokeWidth=2;labelBackgroundColor=none;fontColor=default;verticalAlign=bottom;" edge="1" parent="1" source="9VtgRzQtIl7p8hPJ1WHW-6" target="9VtgRzQtIl7p8hPJ1WHW-7">
          <mxGeometry relative="1" as="geometry" />
        </mxCell>
        <mxCell id="9VtgRzQtIl7p8hPJ1WHW-6" value="My SQL" style="rounded=1;whiteSpace=wrap;html=1;strokeColor=#FFFFFF;align=center;verticalAlign=top;fontFamily=Helvetica;fontSize=12;fontColor=default;labelBackgroundColor=none;fillColor=#3399FF;" vertex="1" parent="1">
          <mxGeometry x="132" y="204" width="60" height="60" as="geometry" />
        </mxCell>
        <mxCell id="9VtgRzQtIl7p8hPJ1WHW-7" value="" style="rounded=1;whiteSpace=wrap;html=1;strokeColor=#3399FF;align=center;verticalAlign=middle;fontFamily=Helvetica;fontSize=12;fontColor=default;labelBackgroundColor=default;fillColor=none;strokeWidth=2;dashed=1;" vertex="1" parent="1">
          <mxGeometry x="360" y="144" width="108" height="96" as="geometry" />
        </mxCell>
        <mxCell id="9VtgRzQtIl7p8hPJ1WHW-8" value="Web servers" style="sketch=0;pointerEvents=1;shadow=0;dashed=0;html=1;strokeColor=none;labelPosition=center;verticalLabelPosition=bottom;verticalAlign=top;outlineConnect=0;align=center;shape=mxgraph.office.servers.physical_host_farm;fillColor=#3ABA3A;fontColor=default;" vertex="1" parent="1">
          <mxGeometry x="386" y="168" width="56" height="49" as="geometry" />
        </mxCell>
      </root>
    </mxGraphModel>
  </diagram>
</mxfile>
